# xmcd
#
# Track frame offsets:
#	150
#	18052
#	33288
#	52291
#	71306
#	90134
#	109270
#	122757
#	139028
#	153206
#	174306
#	194198
#	210782
#	226265
#	248401
#
# Disc length: 3583 seconds
# Revision: 0
# Processed by: cddbd v1.5.2PL0 Copyright (c) Steve Scherf et al.
# Submitted via: dBpowerAMP V12.0
#
DISCID=b50dfd0f
DTITLE=Floyd Lee - Blues Mississippi Tokyo
DYEAR=2003
DGENRE=Blues
TTITLE0=Crack Alley
TTITLE1=Mojo Working
TTITLE2=Down Home Blues
TTITLE3=Bring it Home to Me
TTITLE4=Breaking Up Somebody's Home
TTITLE5=Bullfrog
TTITLE6=Took Everybody Down But Me
TTITLE7=Don't You Know That I Love You
TTITLE8=Going Up, Going Down
TTITLE9=Nobody Cares About Me - Japanese Mix
TTITLE10=Big Boss Man
TTITLE11=I Found a Love
TTITLE12=Before You Acuse Me
TTITLE13=Come Back Baby
TTITLE14=Key to the Highway
EXTD=
EXTT0=
EXTT1=
EXTT2=
EXTT3=
EXTT4=
EXTT5=
EXTT6=
EXTT7=
EXTT8=
EXTT9=
EXTT10=
EXTT11=
EXTT12=
EXTT13=
EXTT14=
PLAYORDER=
